<?xml version="1.0" encoding="utf-8"?>
<!-- Generator: Adobe Illustrator 24.0.1, SVG Export Plug-In . SVG Version: 6.00 Build 0)  -->
<svg version="1.1" id="Layer_1" xmlns="http://www.w3.org/2000/svg" xmlns:xlink="http://www.w3.org/1999/xlink" x="0px" y="0px"
	 viewBox="0 0 666.6 124.5" style="enable-background:new 0 0 666.6 124.5;" xml:space="preserve">
<style type="text/css">
	.st0{fill:#FFFFFF;}
</style>
<path class="st0" d="M211.9,68.7l-10.5,0.2c0.8,9.1,8.1,13.6,21.9,13.6c12.4,0,21.1-3.5,21.1-12c0-6.2-4.8-8.9-12.6-10.5l-13.2-2.9
	c-2.7-0.6-4.3-1.4-4.3-2.7c0-1.7,3.3-2.7,7.2-2.7c7,0,9.9,2.7,10.5,5l10.5-0.4c-1-8.3-9.5-12.6-20.7-12.6c-9.9,0-19,3.3-19,11.6
	c0,4.8,3.1,8.5,11.2,10.3l14.5,3.3c2.7,0.6,4.5,1.4,4.5,2.7c0,2.3-5.4,2.9-9.9,2.9C215.4,74.5,212.5,71.4,211.9,68.7z M249.1,67.8
	c0,9.3,8.1,14.7,20.3,14.7c12,0,20.3-5.4,20.3-14.7s-8.1-14.7-20.3-14.7C257.2,53.2,249.1,58.5,249.1,67.8z M259.6,67.8
	c0-3.5,3.3-6.6,9.5-6.6s9.5,3.1,9.5,6.6s-3.3,6.6-9.5,6.6S259.6,71.4,259.6,67.8z M295.4,42.4v39.5h10.8V42.4H295.4z M313,50.7h11.4
	v-8.3H313V50.7z M313.4,81.9h10.8V53.8h-10.8V81.9z M356.8,61.6v-8.1h-9.1v-6.8h-10.1v4.8c0,1.7-0.8,2.3-2.9,2.3h-5.8v7.9h8.1v9.1
	c0,8.7,4.3,11.6,13,11.6c2.5,0,4.5-0.2,6.6-0.6V73c-1.4,0.2-3.1,0.4-4.3,0.4c-3.9,0-4.8-1-4.8-4.3v-7.6L356.8,61.6L356.8,61.6
	L356.8,61.6z M414.1,68c-1,3.1-5,5.4-11.4,5.4c-8.9,0-13.4-4.1-13.4-10.3s4.3-10.3,12.8-10.3c5.8,0,10.1,1.9,11.4,5l10.8-0.6
	c-1.7-8.1-9.7-13.2-22.1-13.2c-15.1,0-24,7.2-24,19.4s8.9,19.4,24.6,19.4c13.2,0,20.9-4.8,22.3-14.1L414.1,68z M430.4,42.4v39.5
	h10.8V42.4H430.4z M447.2,67.8c0,9.3,8.1,14.7,20.3,14.7c12.2,0,20.3-5.4,20.3-14.7s-8.1-14.7-20.3-14.7
	C455.2,53.2,447.2,58.5,447.2,67.8z M457.7,67.8c0-3.5,3.3-6.6,9.5-6.6s9.5,3.1,9.5,6.6s-3.3,6.6-9.5,6.6S457.7,71.4,457.7,67.8z
	 M519.3,53.8v10.1c0,5.6-2.7,9.9-8.5,9.9c-5.2,0-7-3.5-7-8.9V53.8H493v14.5c0,8.9,4.5,14.3,13.4,14.3c6,0,10.8-2.5,13.4-7.2V82h9.9
	V53.8H519.3z M564.8,42.4v15.3c-2.9-3.3-7.4-4.5-12-4.5c-9.5,0-16.5,5.4-16.5,14.7s7,14.7,16.5,14.7c5.2,0,10.1-1.7,13-5.6v5h9.9
	V42.4H564.8z M555.9,74.5c-5.8,0-9.3-2.7-9.3-6.6s3.5-6.6,9.3-6.6s9.3,2.7,9.3,6.6S561.9,74.5,555.9,74.5z M605.8,62.9l9.9-0.4
	c-1-6.8-9.1-9.3-17.8-9.3c-8.5,0-15.9,2.1-15.9,8.9c0,3.7,2.9,7,9.7,8.3l11.8,2.1c1.7,0.4,2.9,0.8,2.9,1.7c0,0.8-1.7,1.2-6.4,1.2
	c-6,0-8.7-1.2-9.3-2.9l-9.9,0.4c0.8,7.2,8.3,9.7,18.2,9.7c10.1,0,18-2.3,18-9.1c0-4.8-4.1-7.2-10.5-8.3l-11-1.9
	c-1.7-0.2-2.7-0.8-2.7-1.7c0-0.6,0.8-1.4,4.8-1.4C601.8,60.2,604.9,61.4,605.8,62.9z"/>
<g>
	<path class="st0" d="M173.6,38.4c3.3-9.9,8.5-18.9,15.3-26.6c-0.5-0.3-0.9-0.6-1.5-0.9c-0.3-0.2-0.6-0.4-0.9-0.5
		c-0.5-0.3-1-0.6-1.5-0.9c-0.7-0.4-1.4-0.8-2.1-1.1c-0.6-0.3-1.3-0.6-1.9-1c-0.5-0.2-1-0.5-1.5-0.7c-0.3-0.1-0.5-0.2-0.8-0.3
		c-0.6-0.3-1.2-0.5-1.8-0.7S175.7,5.2,175,5c-0.2-0.1-0.4-0.2-0.6-0.2c-0.5-0.2-1-0.3-1.5-0.5c-0.7-0.2-1.3-0.4-2-0.6
		c-0.4-0.1-0.7-0.2-1.1-0.3c-1.1-0.3-2.3-0.6-3.4-0.8c-0.3-0.1-0.6-0.1-0.9-0.2c-0.6-0.1-1.2-0.2-1.8-0.3c-0.7-0.1-1.5-0.2-2.2-0.3
		l0,0c-0.7-0.1-1.3-0.2-2-0.2s-1.4-0.1-2.1-0.1c-0.3,0-0.6,0-0.9,0c-0.7,0-1.4,0-2.1,0c-0.7,0-1.4,0-2.1,0c-0.3,0-0.6,0-0.8,0
		c-0.7,0-1.3,0.1-2,0.1c-0.7,0.1-1.4,0.1-2.1,0.2c-0.8,0.1-1.5,0.2-2.3,0.3c-0.6,0.1-1.2,0.2-1.8,0.3c-0.3,0-0.6,0.1-0.9,0.2
		c-0.6,0.1-1.2,0.2-1.8,0.4c-0.6,0.1-1.2,0.3-1.7,0.4c-0.4,0.1-0.7,0.2-1.1,0.3c-0.7,0.2-1.4,0.4-2,0.6c-0.5,0.2-1,0.3-1.5,0.5
		c-0.2,0.1-0.4,0.1-0.6,0.2c-0.6,0.2-1.3,0.5-1.9,0.7c-0.6,0.2-1.2,0.5-1.8,0.7c-0.3,0.1-0.5,0.2-0.8,0.3c-0.5,0.2-1,0.5-1.5,0.7
		c-0.6,0.3-1.3,0.6-1.9,1c-0.7,0.4-1.4,0.7-2.1,1.1c-0.6,0.3-1.1,0.7-1.7,1c-0.2,0.1-0.4,0.2-0.6,0.4c-0.5,0.3-1,0.6-1.4,0.9
		c-0.5,0.3-1,0.7-1.5,1l-0.3,0.2c-0.4,0.3-0.8,0.6-1.3,0.9c-0.9,0.7-1.8,1.4-2.6,2.2c-0.4,0.3-0.7,0.6-1.1,1c-0.4,0.3-0.7,0.7-1.1,1
		s-0.7,0.7-1,1c-0.5,0.5-0.9,0.9-1.3,1.4s-0.8,0.9-1.3,1.4l0,0c-0.4,0.5-0.9,1-1.3,1.5c-0.7,0.9-1.5,1.8-2.2,2.8
		c-0.2,0.2-0.3,0.4-0.4,0.6c-0.1,0.1-0.2,0.3-0.3,0.4c-0.5,0.7-1,1.5-1.5,2.3c-0.1,0.1-0.2,0.3-0.3,0.4c-0.2,0.2-0.3,0.5-0.5,0.8
		l-0.2,0.3l-0.1,0.1c-0.6,1-1.2,2.1-1.8,3.2c-0.2,0.4-0.4,0.8-0.6,1.2s-0.4,0.8-0.6,1.2s-0.3,0.7-0.5,1.1L98.1,38
		c-0.3,0.8-0.7,1.6-1,2.5c-0.1,0.3-0.2,0.6-0.4,1l-0.1,0.3c-0.3,0.8-0.6,1.7-0.9,2.6l0,0c-0.2,0.7-0.4,1.3-0.6,2s-0.3,1.3-0.5,2l0,0
		c-0.1,0.4-0.2,0.8-0.3,1.2c-0.1,0.5-0.2,1-0.3,1.4c-0.7,3.7-1.1,7.5-1.1,11.4l0,0c0,9.6-4.5,18.2-11.5,23.8
		c-5.2,4.2-11.9,6.7-19.1,6.7C45.7,92.7,32,79.1,32,62.2c0-16.8,13.7-30.5,30.6-30.5c7.2,0,13.9,2.5,19.1,6.7
		C85,28.5,90.3,19.5,97,11.8C87.3,5.2,75.4,1.3,62.6,1.3c-33.8,0-61.2,27.3-61.2,61s27.4,60.9,61.2,60.9c12.8,0,24.6-3.9,34.5-10.5
		c4.2-2.9,8.1-6.2,11.5-10.1l0,0l0,0c9.5-10.7,15.3-24.8,15.3-40.3l0,0c0-0.6,0-1.1,0.1-1.7c0-0.5,0.1-1,0.1-1.5
		c0-0.3,0.1-0.7,0.1-1s0.1-0.5,0.1-0.8c0-0.2,0.1-0.5,0.1-0.7c0.1-0.3,0.1-0.7,0.2-1c0-0.2,0.1-0.3,0.1-0.5c0.1-0.4,0.2-0.8,0.3-1.2
		c0-0.1,0.1-0.3,0.1-0.4c0.1-0.2,0.1-0.5,0.2-0.7c0.1-0.3,0.2-0.6,0.3-1c0.6-1.6,1.3-3.2,2.2-4.7c0.2-0.3,0.3-0.6,0.5-0.9
		c0.1-0.2,0.2-0.4,0.4-0.6c0.2-0.3,0.3-0.5,0.5-0.8l0.3-0.4c0.3-0.4,0.6-0.8,0.9-1.2c0.3-0.4,0.7-0.9,1.1-1.3
		c0.7-0.8,1.5-1.6,2.4-2.4c0.4-0.4,0.8-0.7,1.3-1.1c0.3-0.3,0.7-0.5,1-0.8c1-0.7,2-1.4,3.1-2c0.8-0.5,1.7-0.9,2.6-1.3
		c0.3-0.1,0.6-0.3,0.9-0.4c1.4-0.6,2.8-1,4.3-1.4c0.3-0.1,0.6-0.2,0.9-0.2c0.4-0.1,0.8-0.2,1.2-0.2c0.2,0,0.4-0.1,0.7-0.1
		s0.7-0.1,1-0.1c0.6-0.1,1.2-0.1,1.9-0.2c0.5,0,1,0,1.5,0s1,0,1.5,0c0.6,0,1.3,0.1,1.9,0.2c0.3,0,0.7,0.1,1,0.1c0.2,0,0.4,0,0.6,0.1
		c0.4,0.1,0.8,0.1,1.2,0.2c0.4,0.1,0.7,0.1,1.1,0.2c1.5,0.3,2.9,0.8,4.2,1.3c0.3,0.1,0.6,0.3,0.9,0.4c0.9,0.4,1.8,0.8,2.6,1.3
		c1.1,0.6,2.1,1.3,3.1,2C172.9,37.9,173.3,38.1,173.6,38.4L173.6,38.4z"/>
	<path class="st0" d="M120,112.5L120,112.5L120,112.5c0.5,0.3,0.9,0.7,1.4,1c0.2,0.1,0.4,0.3,0.6,0.4c0.6,0.3,1.1,0.7,1.7,1
		c0.3,0.2,0.7,0.4,1,0.6s0.7,0.4,1,0.5c0.6,0.3,1.3,0.6,1.9,1c0.5,0.2,1,0.5,1.5,0.7c0.3,0.1,0.5,0.2,0.8,0.4
		c0.3,0.1,0.6,0.3,0.9,0.4c0.2,0.1,0.3,0.1,0.5,0.2c0.1,0.1,0.2,0.1,0.4,0.2c0.1,0.1,0.3,0.1,0.4,0.2c0.2,0.1,0.4,0.1,0.5,0.2
		l0.3,0.1l0.3,0.1l0.3,0.1c0.2,0.1,0.4,0.1,0.6,0.2c0.5,0.2,1,0.3,1.5,0.5c0.7,0.2,1.3,0.4,2,0.6c0.3,0.1,0.7,0.2,1.1,0.3
		c0.5,0.2,1.1,0.3,1.7,0.4c0.6,0.1,1.2,0.3,1.8,0.4c0.3,0.1,0.6,0.1,0.9,0.2c0.6,0.1,1.2,0.2,1.8,0.3c0.7,0.1,1.5,0.2,2.3,0.3
		c0.7,0.1,1.4,0.2,2.1,0.2c0.7,0.1,1.3,0.1,2,0.1c0.3,0,0.6,0,0.8,0c0.7,0,1.4,0,2.1,0c0.7,0,1.4,0,2.1,0c0.3,0,0.6,0,0.9,0
		c0.7,0,1.4-0.1,2.1-0.1c0.7,0,1.4-0.1,2-0.2l0,0c0.8-0.1,1.5-0.2,2.2-0.3c0.6-0.1,1.2-0.2,1.8-0.3c0.3-0.1,0.6-0.1,0.9-0.2
		c1.2-0.2,2.3-0.5,3.4-0.8c0.4-0.1,0.7-0.2,1.1-0.3c0.7-0.2,1.4-0.4,2-0.6c0.5-0.2,1-0.3,1.5-0.5c0.2-0.1,0.4-0.1,0.6-0.2l0.3-0.1
		l0.3-0.1l0.3-0.1c0.2-0.1,0.4-0.1,0.5-0.2c0.1,0,0.3-0.1,0.4-0.2c0.3-0.1,0.6-0.2,0.9-0.4c0.3-0.1,0.6-0.3,0.9-0.4
		c0.3-0.1,0.5-0.2,0.8-0.4c0.5-0.2,1-0.5,1.5-0.7c0.6-0.3,1.3-0.6,1.9-1c0.7-0.4,1.4-0.7,2.1-1.1c0.5-0.3,1-0.6,1.5-0.9
		c0.3-0.2,0.6-0.4,0.9-0.5c0.5-0.3,1-0.6,1.5-1c-6.8-7.6-12.1-16.7-15.3-26.6c-0.3,0.3-0.7,0.5-1,0.8c-0.4,0.3-0.9,0.6-1.4,0.9
		c-0.3,0.2-0.7,0.4-1,0.6c-1,0.6-2.2,1.2-3.3,1.7c-0.3,0.2-0.6,0.3-0.9,0.4c-0.3,0.1-0.7,0.3-1,0.4s-0.5,0.2-0.8,0.3
		c-0.2,0.1-0.4,0.1-0.6,0.2l-0.3,0.1c-0.3,0.1-0.6,0.2-1,0.3l0,0c-0.4,0.1-0.8,0.2-1.2,0.3l0,0l-0.4,0.1l-0.3,0.1l-0.3,0.1h-0.3
		c-0.3,0.1-0.7,0.1-1,0.2c-0.3,0-0.7,0.1-1,0.1c-0.6,0.1-1.2,0.1-1.9,0.1c-0.5,0-1,0-1.5,0s-1,0-1.5,0c-0.6,0-1.2-0.1-1.9-0.1
		c-0.3,0-0.7-0.1-1-0.1c-0.2,0-0.4-0.1-0.7-0.1c-0.2,0-0.3-0.1-0.5-0.1c-0.3,0-0.5-0.1-0.7-0.1l-0.3-0.1l0,0c-0.2,0-0.4-0.1-0.6-0.1
		c-0.4-0.1-0.7-0.2-1.1-0.3c-0.3-0.1-0.5-0.1-0.8-0.2c-0.8-0.2-1.6-0.5-2.4-0.9c-0.3-0.1-0.6-0.2-0.9-0.4c-0.9-0.4-1.8-0.8-2.6-1.3
		c-0.3-0.2-0.6-0.4-0.9-0.5c-0.2-0.1-0.4-0.3-0.7-0.4c-0.2-0.1-0.4-0.3-0.6-0.4c-0.3-0.2-0.5-0.4-0.8-0.6c-0.3-0.3-0.7-0.5-1-0.8
		C132,95.8,126.8,104.8,120,112.5L120,112.5z"/>
</g>
</svg>
